<?xml version="1.0" encoding="iso-8859-1"?>
<!-- Generator: Adobe Illustrator 19.0.0, SVG Export Plug-In . SVG Version: 6.00 Build 0)  -->
<svg version="1.1" id="Layer_1" xmlns="http://www.w3.org/2000/svg" xmlns:xlink="http://www.w3.org/1999/xlink" x="0px" y="0px"
	 viewBox="0 0 512 512" style="enable-background:new 0 0 512 512;" xml:space="preserve">
<g>
	<g>
		<path d="M415.551,292.83c-0.042-1.872-0.076-3.727-0.076-5.523c0-31.66-4.465-66.132-14.067-108.452
			c-2.191-9.686-4.843-19.305-7.411-28.622c-1.679-6.085-3.357-12.179-4.919-18.298c-2.568-10.08-4.054-20.942-5.498-31.459
			c-0.562-4.104-1.125-8.184-1.746-12.238c-0.823-5.372-1.847-12.045-6.001-17.844c-5.481-7.646-14.479-12.036-22.553-15.326
			c-6.79-2.77-14.084-5.254-22.293-7.604L289.574,35.63V21.831C289.574,9.795,279.779,0,267.734,0h-23.468
			c-12.045,0-21.84,9.795-21.84,21.831V35.63l-41.405,11.835c-8.217,2.35-15.511,4.835-22.301,7.604
			c-8.074,3.29-17.064,7.68-22.553,15.326c-4.155,5.8-5.179,12.473-6.001,17.844c-0.621,4.054-1.183,8.133-1.746,12.238
			c-1.444,10.517-2.929,21.378-5.498,31.459c-1.553,6.119-3.24,12.212-4.919,18.298c-2.568,9.317-5.221,18.936-7.411,28.622
			c-9.602,42.32-14.067,76.792-14.067,108.452c0,1.796-0.034,3.651-0.076,5.523c-0.235,12.179-0.495,25.978,8.335,35.026
			c5.044,5.17,12.229,7.806,21.353,7.839c10.013-0.017,18.373-3.416,23.283-9.762c5.347-6.891,5.498-15.486,5.607-21.756
			c0.999-57.302,10.819-109.534,29.243-155.715c2.417,20.304,4.583,41.044,4.583,61.373c0,16.779-10.366,59.266-16.493,81.727
			c-0.948,3.483,0.436,7.193,3.441,9.191l3.953,2.627c-8.444,27.74-8.2,54.289-7.839,82.298c0.076,5.666,0.151,11.398,0.151,17.207
			v92.328c0,2.946,1.544,5.682,4.071,7.193C178.805,504.009,195.198,512,256,512s77.194-7.991,79.864-9.594
			c2.526-1.511,4.071-4.247,4.071-7.193v-92.328c0-5.808,0.076-11.541,0.151-17.207c0.361-28.009,0.604-54.557-7.839-82.298
			l3.953-2.627c3.005-1.998,4.39-5.708,3.441-9.191c-6.127-22.461-16.493-64.948-16.493-81.727c0-20.329,2.166-41.069,4.583-61.373
			c18.424,46.181,28.244,98.413,29.243,155.715c0.109,6.27,0.26,14.865,5.607,21.764c4.91,6.337,13.278,9.736,23.283,9.753
			c9.124-0.034,16.308-2.669,21.353-7.839C416.046,318.808,415.786,305.009,415.551,292.83z M229.754,316.542l-39.625-26.414
			c4.642-17.551,15.511-60.735,15.511-80.292c0-24.845-3.038-49.74-5.968-73.812c-0.797-6.522-1.595-13.043-2.325-19.548
			c-0.42-3.693-3.215-6.673-6.874-7.319c-3.668-0.672-7.302,1.183-8.973,4.499c-27.455,54.792-42.009,118.801-43.26,190.229
			c-0.076,4.356-0.159,9.275-2.082,11.759c-1.586,2.056-5.263,3.265-9.854,3.265h-0.101c-4.457-0.017-7.63-0.948-9.409-2.778
			c-3.928-4.02-3.727-14.093-3.559-22.973c0.042-1.989,0.076-3.945,0.076-5.85c0-30.384,4.339-63.673,13.648-104.75
			c2.107-9.292,4.717-18.734,7.227-27.849c1.712-6.203,3.424-12.397,5.011-18.625c2.795-11.004,4.348-22.352,5.85-33.322
			c0.554-4.012,1.1-8.016,1.704-11.986c0.613-3.962,1.242-8.066,3.055-10.593c2.996-4.18,9.384-7.185,15.251-9.569
			c6.22-2.535,12.951-4.826,20.572-7l39.986-11.432c0.109,0.311,0.21,0.579,0.327,0.898c0.059,0.168,0.118,0.353,0.176,0.52
			c0.478,1.326,0.965,2.719,1.469,4.163c0.168,0.487,0.344,0.982,0.52,1.486c0.403,1.158,0.814,2.367,1.234,3.592
			c0.235,0.697,0.478,1.393,0.722,2.107c0.386,1.15,0.781,2.317,1.175,3.508c0.252,0.755,0.504,1.511,0.755,2.275
			c0.394,1.167,0.781,2.367,1.167,3.559c0.285,0.865,0.562,1.712,0.839,2.585c0.386,1.2,0.772,2.409,1.158,3.626
			c0.26,0.839,0.529,1.679,0.797,2.535c0.478,1.528,0.948,3.064,1.41,4.608c0.294,0.948,0.579,1.905,0.865,2.862
			c0.487,1.637,0.974,3.265,1.435,4.893c0.235,0.806,0.453,1.595,0.68,2.401c0.361,1.267,0.714,2.535,1.058,3.794
			c0.235,0.856,0.453,1.687,0.68,2.535c0.311,1.183,0.621,2.359,0.915,3.525c0.218,0.839,0.42,1.67,0.621,2.501
			c0.277,1.125,0.546,2.224,0.797,3.315c0.185,0.814,0.369,1.62,0.546,2.417c0.235,1.066,0.445,2.098,0.655,3.114
			c0.151,0.755,0.302,1.502,0.436,2.224c0.193,1.024,0.361,1.998,0.52,2.963c0.109,0.655,0.227,1.318,0.311,1.947
			c0.151,1.016,0.26,1.956,0.361,2.887c0.059,0.495,0.126,1.024,0.168,1.486c0.117,1.36,0.193,2.636,0.193,3.785v164.396h0.002
			L229.754,316.542z M395.205,316.131c-1.779,1.83-4.952,2.761-9.409,2.778h-0.101c-4.591,0-8.268-1.209-9.846-3.257
			c-1.93-2.493-2.014-7.411-2.09-11.768c-1.251-71.428-15.796-135.437-43.26-190.229c-1.444-2.871-4.365-4.633-7.504-4.633
			c-0.487,0-0.982,0.042-1.469,0.134c-3.66,0.646-6.455,3.626-6.874,7.319c-0.73,6.505-1.528,13.027-2.325,19.548
			c-2.929,24.072-5.968,48.967-5.968,73.812c0,19.557,10.87,62.741,15.511,80.292l-39.625,26.414l-17.853-17.853V134.295
			c0-1.15,0.076-2.426,0.193-3.785c0.042-0.462,0.109-0.99,0.168-1.486c0.101-0.932,0.21-1.872,0.361-2.887
			c0.092-0.63,0.201-1.293,0.311-1.947c0.159-0.965,0.327-1.939,0.52-2.963c0.134-0.722,0.285-1.469,0.436-2.224
			c0.21-1.016,0.428-2.048,0.655-3.114c0.176-0.797,0.361-1.603,0.554-2.417c0.252-1.091,0.512-2.191,0.789-3.315
			c0.201-0.831,0.403-1.662,0.621-2.501c0.294-1.167,0.604-2.342,0.915-3.525c0.227-0.848,0.445-1.679,0.68-2.535
			c0.344-1.259,0.697-2.526,1.058-3.794c0.227-0.806,0.445-1.595,0.68-2.401c0.462-1.628,0.948-3.257,1.435-4.893
			c0.285-0.957,0.571-1.914,0.865-2.862c0.462-1.544,0.932-3.08,1.41-4.608c0.269-0.856,0.537-1.695,0.806-2.535
			c0.378-1.217,0.764-2.426,1.15-3.626c0.277-0.873,0.554-1.721,0.839-2.585c0.386-1.192,0.781-2.392,1.167-3.559
			c0.252-0.764,0.504-1.519,0.755-2.275c0.395-1.192,0.789-2.359,1.175-3.508c0.243-0.713,0.487-1.41,0.722-2.107
			c0.42-1.225,0.831-2.434,1.234-3.592c0.176-0.504,0.353-0.999,0.52-1.486c0.504-1.444,0.999-2.837,1.469-4.163
			c0.059-0.168,0.117-0.353,0.185-0.52c0.109-0.319,0.21-0.588,0.319-0.898l39.986,11.432c7.63,2.174,14.353,4.465,20.581,7
			c5.859,2.384,12.246,5.389,15.242,9.569c1.813,2.526,2.442,6.631,3.055,10.593c0.604,3.97,1.15,7.974,1.704,11.986
			c1.502,10.97,3.055,22.318,5.859,33.322c1.586,6.228,3.29,12.422,5.003,18.625c2.518,9.115,5.12,18.558,7.227,27.849
			c9.308,41.078,13.648,74.366,13.648,104.75c0,1.905,0.034,3.861,0.076,5.85C398.932,302.038,399.133,312.11,395.205,316.131z"/>
	</g>
</g>
<g>
</g>
<g>
</g>
<g>
</g>
<g>
</g>
<g>
</g>
<g>
</g>
<g>
</g>
<g>
</g>
<g>
</g>
<g>
</g>
<g>
</g>
<g>
</g>
<g>
</g>
<g>
</g>
<g>
</g>
</svg>
