<?xml version="1.0" encoding="iso-8859-1"?>
<!-- Generator: Adobe Illustrator 19.0.0, SVG Export Plug-In . SVG Version: 6.00 Build 0)  -->
<svg version="1.1" id="Layer_1" xmlns="http://www.w3.org/2000/svg" xmlns:xlink="http://www.w3.org/1999/xlink" x="0px" y="0px"
	 viewBox="0 0 512 512" style="enable-background:new 0 0 512 512;" xml:space="preserve">
<g>
	<g>
		<path d="M383.28,209.709v-47.73l47.73-15.91l15.91-79.55C418.957,43.691,381.718,15.961,334.47,0
			c-6.221,37.732-38.975,66.518-78.468,66.518c-39.494,0-72.249-28.786-78.47-66.518C130.283,15.961,93.043,43.691,65.079,66.518
			l15.91,79.55l47.73,15.91v47.73L33.259,448.36c0,0,63.64,63.64,222.741,63.64s222.741-63.64,222.741-63.64L383.28,209.709z
			 M122.36,109.547l-4.703-23.518c11.1-8.173,23.089-16.185,36.041-23.362c5.667,7.661,12.209,14.71,19.533,20.985
			c23.025,19.73,52.419,30.597,82.767,30.597s59.744-10.865,82.769-30.597c7.325-6.275,13.867-13.326,19.533-20.985
			c12.954,7.179,24.942,15.189,36.041,23.362l-4.703,23.518l-54.089,18.029v68.133c-4.009-18.516-14.717-29.224-14.717-29.224
			c-17.939,0-33.44,9.724-44.785,19.948c-5.137-4.154-11.678-6.65-18.801-6.65c-7.734,0-14.782,2.937-20.093,7.753
			c-11.443-10.615-27.405-21.051-45.986-21.051c0,0-10.708,10.708-14.717,29.224v-68.133L122.36,109.547z M256.002,464.27
			c-70.383,0-118.342-13.789-146.18-25.357c-6.849-2.845-12.844-5.697-18.015-8.404l81.23-203.074l2.802-7.002
			c3.363,20.516,15.329,32.498,15.329,32.498c18.583,0,34.544-10.435,45.986-21.049c5.311,4.816,12.359,7.751,20.093,7.751
			c7.123,0,13.664-2.493,18.801-6.65c11.347,10.225,26.847,19.948,44.785,19.948c0,0,11.966-11.982,15.329-32.498l2.802,7.002
			l81.23,203.074c-5.171,2.706-11.166,5.559-18.013,8.404C374.344,450.481,326.384,464.27,256.002,464.27z"/>
	</g>
</g>
<g>
</g>
<g>
</g>
<g>
</g>
<g>
</g>
<g>
</g>
<g>
</g>
<g>
</g>
<g>
</g>
<g>
</g>
<g>
</g>
<g>
</g>
<g>
</g>
<g>
</g>
<g>
</g>
<g>
</g>
</svg>
