<?xml version="1.0" encoding="iso-8859-1"?>
<!-- Generator: Adobe Illustrator 19.0.0, SVG Export Plug-In . SVG Version: 6.00 Build 0)  -->
<svg version="1.1" id="Capa_1" xmlns="http://www.w3.org/2000/svg" xmlns:xlink="http://www.w3.org/1999/xlink" x="0px" y="0px"
	 viewBox="0 0 362.494 362.494" style="enable-background:new 0 0 362.494 362.494;" xml:space="preserve">
<path id="XMLID_830_" d="M286.333,350.763c-0.099-0.561-9.985-56.763-20.648-113.493c-21.963-116.849-25.667-121.985-27.881-125.054
	l-0.017-0.023c-0.279-0.385-0.713-0.946-1.26-1.647c-4.883-6.259-7.583-10.738-8.025-13.313l-1.079-6.284
	c7.851-24.584,12.775-41.24,14.722-49.785h23.759v-20h-25.803C234.61,8.715,222.158,0,207.702,0h-52.91
	c-14.456,0-26.908,8.715-32.398,21.164H96.591v20h23.759c1.946,8.545,6.871,25.201,14.722,49.785l-1.079,6.284
	c-0.442,2.575-3.143,7.054-8.025,13.313c-0.547,0.702-0.98,1.263-1.276,1.67c-2.214,3.069-5.918,8.205-27.881,125.054
	C86.146,294,76.26,350.202,76.161,350.763l-2.063,11.731h214.297L286.333,350.763z M154.792,20h52.91
	c8.366,0,15.194,6.708,15.393,15.026c-0.754,4.844-8.172,29.313-16.034,53.899h-51.628c-7.862-24.586-15.28-49.055-16.034-53.899
	C139.598,26.708,146.426,20,154.792,20z M97.93,342.494c14.648-82.663,37.597-205.549,43.308-219.008
	c0.145-0.186,0.313-0.4,0.499-0.639c2.363-3.03,4.782-6.313,6.846-9.726h65.33c2.064,3.413,4.483,6.696,6.846,9.726
	c0.187,0.239,0.354,0.453,0.499,0.639c5.711,13.459,28.659,136.345,43.308,219.008H97.93z"/>
<g>
</g>
<g>
</g>
<g>
</g>
<g>
</g>
<g>
</g>
<g>
</g>
<g>
</g>
<g>
</g>
<g>
</g>
<g>
</g>
<g>
</g>
<g>
</g>
<g>
</g>
<g>
</g>
<g>
</g>
</svg>
