<svg width="36px" height="36px" viewBox="0 -2 36 36" xmlns="http://www.w3.org/2000/svg">
  <g id="Lager_98" data-name="Lager 98" transform="translate(2)">
    <path id="Path_117" data-name="Path 117" d="M16,4.19l13.577,9.583A1,1,0,0,1,30,14.59V27a1,1,0,0,1-1,1H3a1,1,0,0,1-1-1V14.59a1,1,0,0,1,.423-.817L16,4.19M16.365,0h-.73a2,2,0,0,0-1.154.366L-1.153,11.4A2,2,0,0,0-2,13.036V30a2,2,0,0,0,2,2H32a2,2,0,0,0,2-2V13.036a2,2,0,0,0-.847-1.634L17.519.366A2,2,0,0,0,16.365,0Z" fill="#040405"/>
    <path id="Rectangle_68" data-name="Rectangle 68" d="M1,0H7A1,1,0,0,1,8,1V16a0,0,0,0,1,0,0H0a0,0,0,0,1,0,0V1A1,1,0,0,1,1,0Z" transform="translate(6 16)" fill="#040405"/>
    <rect id="Rectangle_69" data-name="Rectangle 69" width="8" height="4" rx="1" transform="translate(18 16)" fill="#040405"/>
  </g>
</svg>
